<svg width="194" height="63" viewBox="0 0 194 63" fill="none" xmlns="http://www.w3.org/2000/svg">
<path d="M28.8498 17H36.9998C39.8331 17 41.8998 17.6667 43.1998 19C44.4998 20.3 45.1498 22.3167 45.1498 25.05V27.2C45.1498 30.8333 43.9498 33.1333 41.5498 34.1V34.2C42.8831 34.6 43.8165 35.4167 44.3498 36.65C44.9165 37.8833 45.1998 39.5333 45.1998 41.6V47.75C45.1998 48.75 45.2331 49.5667 45.2998 50.2C45.3665 50.8 45.5331 51.4 45.7998 52H40.1998C39.9998 51.4333 39.8665 50.9 39.7998 50.4C39.7331 49.9 39.6998 49 39.6998 47.7V41.3C39.6998 39.7 39.4331 38.5833 38.8998 37.95C38.3998 37.3167 37.5165 37 36.2498 37H34.3498V52H28.8498V17ZM36.3498 32C37.4498 32 38.2665 31.7167 38.7998 31.15C39.3665 30.5833 39.6498 29.6333 39.6498 28.3V25.6C39.6498 24.3333 39.4165 23.4167 38.9498 22.85C38.5165 22.2833 37.8165 22 36.8498 22H34.3498V32H36.3498ZM65.2158 55.25C62.7158 55.25 61.1825 54.1333 60.6158 51.9C59.5825 52.3 58.3658 52.5 56.9658 52.5C54.2658 52.5 52.1992 51.7333 50.7658 50.2C49.3325 48.6667 48.6158 46.5 48.6158 43.7V25.3C48.6158 22.5 49.3325 20.3333 50.7658 18.8C52.1992 17.2667 54.2658 16.5 56.9658 16.5C59.6658 16.5 61.7325 17.2667 63.1658 18.8C64.5992 20.3333 65.3158 22.5 65.3158 25.3V43.7C65.3158 46.0333 64.7992 47.95 63.7658 49.45C63.9658 49.7833 64.2158 50 64.5158 50.1C64.8158 50.2 65.2492 50.25 65.8158 50.25H66.6658V55.25H65.2158ZM56.9658 47.5C58.8658 47.5 59.8158 46.35 59.8158 44.05V24.95C59.8158 22.65 58.8658 21.5 56.9658 21.5C55.0658 21.5 54.1158 22.65 54.1158 24.95V44.05C54.1158 46.35 55.0658 47.5 56.9658 47.5ZM69.0354 17H77.3354C80.1687 17 82.2354 17.6667 83.5354 19C84.8354 20.3 85.4854 22.3167 85.4854 25.05V26.45C85.4854 28.25 85.1854 29.7167 84.5854 30.85C84.0187 31.9833 83.1354 32.8 81.9354 33.3V33.4C84.6687 34.3333 86.0354 36.7667 86.0354 40.7V43.7C86.0354 46.4 85.3187 48.4667 83.8854 49.9C82.4854 51.3 80.4187 52 77.6854 52H69.0354V17ZM76.6854 31.25C77.7854 31.25 78.602 30.9667 79.1354 30.4C79.702 29.8333 79.9854 28.8833 79.9854 27.55V25.6C79.9854 24.3333 79.752 23.4167 79.2854 22.85C78.852 22.2833 78.152 22 77.1854 22H74.5354V31.25H76.6854ZM77.6854 47C78.652 47 79.3687 46.75 79.8354 46.25C80.302 45.7167 80.5354 44.8167 80.5354 43.55V40.5C80.5354 38.9 80.252 37.8 79.6854 37.2C79.152 36.5667 78.252 36.25 76.9854 36.25H74.5354V47H77.6854Z" fill="#15709F"/>
<path d="M113.16 52.5C110.493 52.5 108.46 51.75 107.06 50.25C105.66 48.7167 104.96 46.5333 104.96 43.7V25.3C104.96 22.4667 105.66 20.3 107.06 18.8C108.46 17.2667 110.493 16.5 113.16 16.5C115.826 16.5 117.86 17.2667 119.26 18.8C120.66 20.3 121.36 22.4667 121.36 25.3V28.3H116.16V24.95C116.16 22.65 115.21 21.5 113.31 21.5C111.41 21.5 110.46 22.65 110.46 24.95V44.1C110.46 46.3667 111.41 47.5 113.31 47.5C115.21 47.5 116.16 46.3667 116.16 44.1V37.25H113.41V32.25H121.36V43.7C121.36 46.5333 120.66 48.7167 119.26 50.25C117.86 51.75 115.826 52.5 113.16 52.5ZM129.208 37.1L122.558 17H128.408L132.158 29.85H132.258L136.008 17H141.358L134.708 37.1V52H129.208V37.1ZM143.836 17H151.686L155.186 42.05H155.286L158.786 17H166.636V52H161.436V25.5H161.336L157.336 52H152.736L148.736 25.5H148.636V52H143.836V17Z" fill="white"/>
</svg>
